<svg xmlns="http://www.w3.org/2000/svg" viewBox="0 0 1024 1024" fill="#fff">
  <path fill-rule="evenodd" style="shape-rendering:geometricPrecision" d="M580 70q8-3 15 2l15 58 20 60 20 50q8 7 30 12l40 13 35 13q19 9 10 17l-145 2-160-2h-80l-35 13q-6 8 5 12l55-10q-1-8 5-8l110 2 30 10 40-4 10-4 100-2q8 0 8 6t-6 8v22l-4 30-8 25q-7 11-30 15l40 15 70 15q21 7 20 22 1 14-20 18l-130 2-5 18-10 40-5 40q-7 31-30 55a48 48 0 0 1-40 13l-70-28-80-45-60-45-12-30-10-60-6-60q0-21 6-50l-73-2q-19-3-13-18l28-15 60-20 15-40 25-95 10-40q8-24 30-25l80 7h40l25-6Zm-135 130 95 2 90 8 12 30-32-2-90-3-110 3-50 6-15-29 25-9Zm120 135q8-4 13 3l17 27 15 20q15 15 45 30l50 17 65 16q15 6 15 17 0 5-15 5l-130-5-60-10-60-3q-15 0-28-6-6-6-4-18l12-18 30-25 15-25Zm-143 0q3 5 6 20l7 25q8 15 30 18 5 0 5 2-15 3-28-5l-12-17-8-30Zm283-3v20l-5 23-10 15q-8 8-28 8 0-3 8-4l20-8 8-16Zm-375 218 30 50 45 70 40 60 35 70 35 55 20-55 10-60-15-30 15-20 15-15 30 20-5 25 15 50 15 60 7-50 3-60v-120l10 10 15 15 25 25 35 30 40 25-5 25-25 50-25 45-30 50-35 55-35 40-20 5-35-25-70-55-80-60-70-55-80-65-60-40 20-15 50-30 35-25 5-15 15-25Zm238-182q4 3 4 8-3 3-9 0Z"/>
</svg>
