<?xml version="1.0" encoding="utf-8"?>
<!-- Generator: Adobe Illustrator 17.0.0, SVG Export Plug-In . SVG Version: 6.00 Build 0)  -->
<!DOCTYPE svg PUBLIC "-//W3C//DTD SVG 1.1//EN" "http://www.w3.org/Graphics/SVG/1.1/DTD/svg11.dtd">
<svg version="1.1" id="Layer_1" xmlns="http://www.w3.org/2000/svg" xmlns:xlink="http://www.w3.org/1999/xlink" x="0px" y="0px"
	 width="500px" height="500px" viewBox="0 0 500 500" enable-background="new 0 0 500 500" xml:space="preserve">
<g>
	<g>
		<path fill="#808080" d="M151.583,133.43c-1.255,1.946,0.646,1.946,5.704,0C155.385,133.43,153.484,133.43,151.583,133.43z"/>
		<path fill="#808080" d="M423.762,406.435C351.624,511.72,195.549,530.36,100.813,443.681
			c-29.726-27.249-61.828-70.379-45.267-112.843c9.16-23.487,37.102-24.426,57.716-32.065
			c27.527-10.201,54.303-25.636,71.783-49.842c1.823,22.976,23.814,52.576,33.269,73.388c9.772,21.51,19.334,43.117,28.757,64.783
			c0.991-8.282,16.502-92.821-14.752-76.345c19.458-21.14,35.548-31.5,54.594,0.311c-2.329-1.542-4.659-3.084-6.988-4.625
			c-13.702,28.822,6.996,68.66,14.663,97.275c-0.159-44.012,1.277-88.943-3.305-132.758c25.284,18.425,52.786,29.832,81.891,41.012
			C411.181,326.572,412.863,370.402,423.762,406.435C416.231,417.427,422.675,402.841,423.762,406.435z"/>
		<path fill="#808080" d="M141.639,217.359c-1.449,30.049-3.187,60.252-7.215,90.078c-1.049,7.765-10.07,31.329,4.856,29.922
			c5.631-0.531,26.431-6.722,28.324-12.94c7.661-25.155,15.321-50.31,22.982-75.465
			C194.325,236.673,152.531,222.984,141.639,217.359z"/>
		<path fill="#808080" d="M151.583,133.43c-1.255,1.946,0.646,1.946,5.704,0C155.385,133.43,153.484,133.43,151.583,133.43z"/>
		<path fill="#808080" d="M380.027,190.172c2.551-3.381,12.116-35.014,7.979-40.841c-21.139-9.962-38.084,1.086-58.839,0.144
			c-28.481-1.292-52.16-10.216-82.194-5.857c-20.152,2.925-40.476,6.822-59.248,14.892c-5.085,2.171-33.296,22.994-33.035,23.122
			c-14.027-6.836,43.648-35.195,48.133-36.619c33.084-10.501,67.297-12.315,101.608-15.552c25.236-2.379,54.641-1.008,78.47-11.112
			c16.618-7.047,20.647-25.35,3.137-33.427c-22.945-10.585-53.247,1.025-64.749-21.947c-9.865-19.703-19.126-50.833-42.862-57.923
			c-36.643-10.945-98.407,4.036-125.468,30.683c-14.664,14.44-12.628,32.211-13.789,51.294c-0.771,12.674,2.771,18.959-9.236,22.648
			c-11.996,3.686-35.259,9.105-41.089,21.843c-9.907,21.645,60.404,18.041,70.524,17.445
			c-48.116,78.556,9.309,154.103,95.828,138.485c21.662-3.91,46.538-11.144,63.301-26.06c14.268-12.696,18.851-26.329,38.884-31.764
			c22.88-6.207,48.618-2.853,71.213,3.225C425.427,211.414,397.813,197.701,380.027,190.172z M147.943,113.559
			c32.398-5.478,64.75-11.227,97.122-16.857c18.865-3.281,37.73-6.561,56.594-9.842c2.704-0.47,37.591-8.61,26.975,6.476
			c-8.441,11.996-61.367,8.371-74.078,9.64C219.023,106.522,183.499,110.243,147.943,113.559
			C162.475,111.102,162.63,112.189,147.943,113.559z M370.763,155.911c8.064,4.793,6.789,19.245,0,26.465
			C372.129,173.756,372.669,164.493,370.763,155.911z M300.604,159.526c19.572-0.816,8.747,23.495-2.02,28.95
			C303.101,186.108,301.518,163.22,300.604,159.526z M284.787,217.004c-13.756-0.207-27.836-4.341-34.89-17.079
			c-3.743-6.76-3.246-24.814-13.996-23.708c-17.975,1.85-35.949,3.701-53.924,5.551c17.165-8.213,32.693-15.006,51.887-17.165
			c24.854-2.796,13.115,15.487,25.149,31.147c14.31,18.621,50.25,11.317,61.727-7.041c2.807-4.491,3.5-9.537,5.626-14.35
			c9.82-22.233,13.955,4.169,18.087,9.218c-10.884-13.363-14.883,7.391-19.096,13.609
			C316.276,210.59,300.73,217.253,284.787,217.004C252.941,216.524,316.35,217.498,284.787,217.004z M327.761,210.296
			c11.885-7.741,12.4-23.74,26.261-19.392c19.134,6.002,40.641,14.199,54.49,29.334
			C382.501,213.437,354.709,208.449,327.761,210.296z"/>
	</g>
</g>
</svg>
